<svg width="330" height="65" viewBox="0 0 330 65" fill="none" xmlns="http://www.w3.org/2000/svg">
<path d="M52.82 61.1398L49.67 61.6798C48.95 61.7998 48.2 61.7998 47.42 61.6798C46.64 61.5598 45.83 61.4998 44.99 61.4998C44.81 61.4998 44.54 61.4998 44.18 61.4998C43.82 61.4998 43.4 61.4998 42.92 61.4998C42.5 61.4998 42.08 61.5298 41.66 61.5898C41.24 61.5898 40.88 61.5898 40.58 61.5898L38.6 60.2398C38.78 59.0398 38.72 58.1698 38.42 57.6298C38.18 57.0898 38 56.5798 37.88 56.0998C37.76 55.7398 37.52 55.1698 37.16 54.3898C36.8 53.6098 36.47 52.7098 36.17 51.6898C36.17 51.5098 35.87 50.9698 35.27 50.0698C34.67 49.1698 34.19 48.3598 33.83 47.6398L32.75 48.0898C32.45 48.0898 32.12 48.1798 31.76 48.3598C31.4 48.5398 30.5 48.6298 29.06 48.6298C28.88 48.2698 28.58 48.0298 28.16 47.9098C27.74 47.7298 27.26 47.6998 26.72 47.8198C26.24 47.8798 25.73 48.0598 25.19 48.3598C24.71 48.6598 24.29 49.0198 23.93 49.4398L20.24 49.9798C20 49.4398 19.73 49.0198 19.43 48.7198C19.19 48.3598 18.92 48.0298 18.62 47.7298C18.38 47.4298 18.17 47.0998 17.99 46.7398C17.81 46.3798 17.72 45.8998 17.72 45.2998C18.92 44.9998 19.61 44.6098 19.79 44.1298C20.03 43.6498 20.21 43.4398 20.33 43.4998C20.69 43.6798 21.02 43.7698 21.32 43.7698C20.9 43.7698 20.78 43.7098 20.96 43.5898C21.14 43.4698 21.95 43.1698 23.39 42.6898L29.96 41.8798L31.31 42.8698C32.27 43.1098 32.99 43.1698 33.47 43.0498C33.95 42.9298 34.28 42.7198 34.46 42.4198C34.64 42.0598 34.73 41.6698 34.73 41.2498C34.79 40.8298 34.85 40.4698 34.91 40.1698C35.03 39.5098 34.88 38.9698 34.46 38.5498C34.1 38.0698 33.59 37.6498 32.93 37.2898C32.81 36.6298 32.57 35.8798 32.21 35.0398C31.91 34.1398 31.52 33.0898 31.04 31.8898C30.62 30.7498 30.23 29.5498 29.87 28.2898C29.57 26.9698 29.3 25.7698 29.06 24.6898C28.82 23.6098 28.64 22.7098 28.52 21.9898C28.4 21.2698 28.31 20.8498 28.25 20.7298C27.41 20.1898 26.72 20.1598 26.18 20.6398C25.64 21.0598 25.19 21.6898 24.83 22.5298C24.53 23.3698 24.32 24.2698 24.2 25.2298C24.14 26.1298 24.14 26.7598 24.2 27.1198C24.14 27.2398 23.99 27.4498 23.75 27.7498C23.51 27.9898 23.24 28.2598 22.94 28.5598C22.64 28.8598 22.37 29.1598 22.13 29.4598C21.89 29.6998 21.74 29.8798 21.68 29.9998C21.44 30.4198 21.38 30.8698 21.5 31.3498C21.62 31.8298 21.53 32.2498 21.23 32.6098C20.03 34.7698 18.62 36.4798 17 37.7398C16.58 38.0998 16.25 38.6098 16.01 39.2698C15.77 39.9298 15.62 40.6198 15.56 41.3398C15.5 42.0598 15.56 42.7798 15.74 43.4998C15.92 44.1598 16.25 44.6998 16.73 45.1198C16.13 45.4798 15.65 45.8698 15.29 46.2898C14.99 46.6498 14.72 47.0698 14.48 47.5498C14.3 47.9698 14.12 48.4498 13.94 48.9898C13.76 49.4698 13.55 50.0098 13.31 50.6098C12.29 53.3098 11.78 54.7198 11.78 54.8398L10.52 57.4498L9.35 62.2198C9.41 63.1198 9.08 63.6598 8.36 63.8398C7.7 64.0198 6.62 64.1098 5.12 64.1098C3.68 64.4698 2.42 64.6498 1.34 64.6498C0.26 64.5898 -0.1 64.0198 0.26 62.9398C1.82 59.2198 2.96 56.4598 3.68 54.6598C4.46 52.7998 4.85 51.3898 4.85 50.4298C4.85 50.1298 4.97 49.8898 5.21 49.7098C5.51 49.4698 5.75 49.2898 5.93 49.1698C5.99 49.0498 6.2 48.4198 6.56 47.2798C6.98 46.1398 7.43 44.8798 7.91 43.4998C8.39 42.0598 8.84 40.7098 9.26 39.4498C9.74 38.1298 10.1 37.2298 10.34 36.7498C10.88 35.6098 11.51 34.3198 12.23 32.8798C13.01 31.4398 13.91 30.0598 14.93 28.7398C15.47 28.0198 15.92 27.0298 16.28 25.7698C16.7 24.5098 17.09 23.1298 17.45 21.6298C17.81 20.1298 18.2 18.5998 18.62 17.0398C19.04 15.4798 19.58 14.0398 20.24 12.7198C20.6 12.5998 21.65 11.2798 23.39 8.75984C23.51 8.63985 23.6 8.51985 23.66 8.39984C23.78 8.21985 23.9 8.06985 24.02 7.94984L35.54 7.22984C35.78 7.52985 36.05 7.88985 36.35 8.30984C36.65 8.72985 36.98 9.17985 37.34 9.65984C38.48 11.0998 39.17 12.2398 39.41 13.0798C39.65 13.9198 39.8 14.4898 39.86 14.7898C39.74 14.9698 40.37 17.0098 41.75 20.9098C42.11 21.8698 42.41 22.9498 42.65 24.1498C42.89 25.3498 43.07 26.4898 43.19 27.5698C43.31 28.5898 43.37 29.4898 43.37 30.2698C43.37 30.9898 43.34 31.3798 43.28 31.4398C43.16 31.4998 44.12 32.2498 46.16 33.6898C46.64 34.0498 46.91 34.3798 46.97 34.6798C47.09 34.9798 47.09 35.2498 46.97 35.4898C46.91 35.7298 46.79 35.9398 46.61 36.1198C46.43 36.2998 46.34 36.4198 46.34 36.4798L48.77 39.7198C48.77 39.7198 49.46 42.3298 50.84 47.5498C51.62 50.0698 52.19 52.2298 52.55 54.0298C52.91 55.7698 53.09 57.1198 53.09 58.0798C53.09 58.1998 53.12 58.2898 53.18 58.3498C53.18 58.2898 53.24 58.4398 53.36 58.7998L52.82 61.1398Z" fill="#5AA200"/>
<path d="M96.4278 23.6998V27.8398H94.0878L90.6678 30.5398C87.7278 30.9598 85.3278 31.5598 83.4678 32.3398C81.6078 33.0598 80.7378 34.0798 80.8578 35.3998C80.7378 35.6998 80.6778 36.0598 80.6778 36.4798C80.6778 36.8398 80.8878 37.0198 81.3078 37.0198L79.5078 46.0198L78.6978 47.0098V56.9998L78.1578 62.0398L76.3578 63.8398L66.0978 63.1198L63.8478 60.0598L64.4778 58.4398L64.1178 53.4898L65.1978 44.3998L66.0978 37.7398C66.0978 37.5598 66.1278 37.4098 66.1878 37.2898C66.1878 37.1698 66.1878 37.0198 66.1878 36.8398C66.2478 36.6598 66.2778 36.5098 66.2778 36.3898C66.5778 36.1498 66.7578 35.6098 66.8178 34.7698C66.9378 33.9298 66.9678 33.3898 66.9078 33.1498C66.9078 32.7298 66.8778 32.3398 66.8178 31.9798C66.8178 31.6198 66.6978 30.8398 66.4578 29.6398C66.3978 29.2798 66.1878 28.8598 65.8278 28.3798C65.5278 27.8398 65.1978 27.3598 64.8378 26.9398L66.0078 24.1498H67.7178L76.9878 22.4398L79.2378 23.5198C79.0578 24.5398 79.0278 25.4098 79.1478 26.1298C79.3278 26.7898 79.5678 27.2998 79.8678 27.6598C80.2278 28.0198 80.6178 28.2598 81.0378 28.3798C81.4578 28.4398 81.8178 28.3798 82.1178 28.1998L83.7378 27.2998C84.0378 27.1798 84.1278 26.8498 84.0078 26.3098C83.9478 25.7698 83.9778 25.0798 84.0978 24.2398L95.2578 22.2598L96.4278 23.6998Z" fill="#5AA200"/>
<path d="M139.928 25.6798V29.0098L139.388 29.5498L131.198 27.8398L123.998 31.1698L122.018 35.7598C120.218 39.3598 118.898 42.6298 118.058 45.5698C117.218 48.4498 117.308 50.9098 118.328 52.9498L120.938 57.4498L130.388 55.8298L134.348 54.4798H141.728L142.628 57.6298L132.548 60.5098L118.328 63.4798L114.008 60.6898H106.628L103.838 57.6298C103.118 54.2098 103.208 50.7598 104.108 47.2798C105.008 43.7398 106.358 40.1398 108.158 36.4798L118.238 29.1898L120.758 24.8698L123.638 23.7898L125.618 22.1698L139.298 23.8798L139.928 25.6798Z" fill="#5AA200"/>
<path d="M195.537 59.0698L182.937 60.5998L180.327 56.3698C180.327 55.5898 179.727 55.6198 178.527 56.4598C178.227 56.6398 177.927 56.9398 177.627 57.3598C177.327 57.7798 177.027 58.1998 176.727 58.6198C176.547 58.8598 176.367 59.0998 176.187 59.3398C176.007 59.5798 175.827 59.8498 175.647 60.1498C173.787 61.5298 171.867 62.4298 169.887 62.8498C167.967 63.2698 166.317 62.9998 164.937 62.0398C163.917 61.9198 163.227 61.6798 162.867 61.3198C162.687 61.1998 162.447 60.9898 162.147 60.6898L156.387 60.3298L153.957 59.1598L151.707 53.4898L152.157 51.5998L150.177 43.6798L153.957 37.3798L157.017 34.5898C158.157 33.9898 159.477 33.5098 160.977 33.1498C162.477 32.7898 163.977 32.5498 165.477 32.4298C166.977 32.2498 168.417 32.2198 169.797 32.3398C171.177 32.3998 172.317 32.5798 173.217 32.8798C173.217 33.8398 173.517 34.4698 174.117 34.7698C174.717 35.0698 175.887 35.3998 177.627 35.7598C178.227 34.7398 178.527 33.5098 178.527 32.0698C178.527 30.5698 178.257 29.0098 177.717 27.3898L176.277 22.7998C175.797 22.6198 175.047 22.3198 174.027 21.8998C173.067 21.4198 172.257 21.0298 171.597 20.7298L167.727 21.3598L163.767 22.1698L162.867 20.7298L163.857 18.3898L164.487 16.9498L165.747 16.6798L169.887 15.9598L173.577 17.2198L177.627 16.5898L185.457 18.9298L188.787 23.9698L189.957 38.2798L189.687 42.7798L191.667 53.3098L192.837 53.8498H195.627L196.797 56.9998L195.537 59.0698ZM162.507 44.3998C162.207 45.9598 162.207 47.2798 162.507 48.3598C162.867 49.4398 163.437 50.3398 164.217 51.0598L165.567 53.8498C166.647 54.2098 167.667 54.4798 168.627 54.6598C169.587 54.8398 170.577 54.8698 171.597 54.7498C172.677 54.5698 173.787 54.2398 174.927 53.7598C176.127 53.2198 177.507 52.4398 179.067 51.4198L179.247 46.8298L177.627 38.8198C176.787 38.5198 176.037 38.3698 175.377 38.3698C174.777 38.3698 174.177 38.4298 173.577 38.5498C172.857 38.7298 172.017 38.8798 171.057 38.9998C170.097 39.1198 169.107 39.2698 168.087 39.4498C167.127 39.5698 166.227 39.7498 165.387 39.9898C164.607 40.1698 164.037 40.4398 163.677 40.7998L162.507 44.3998Z" fill="#5AA200"/>
<path d="M235.908 1.55985L244.098 2.09984C245.238 2.09984 245.688 2.72984 245.448 3.98985C244.968 4.94984 244.608 6.20984 244.368 7.76985C244.128 9.26984 243.948 10.9198 243.828 12.7198C243.108 18.0598 242.568 22.7398 242.208 26.7598C241.908 30.7198 241.668 34.0798 241.488 36.8398C241.308 39.5998 241.128 41.7898 240.948 43.4098C240.828 45.0298 240.618 46.1398 240.318 46.7398L241.038 54.2998L240.678 55.7398C240.858 56.2198 241.038 56.6998 241.218 57.1798C241.458 57.5998 241.638 57.9598 241.758 58.2598C241.998 58.7398 242.148 59.0698 242.208 59.2498C242.208 59.5498 241.968 59.8798 241.488 60.2398C241.068 60.5998 240.528 60.9598 239.868 61.3198C239.208 61.6798 238.488 62.0398 237.708 62.3998C236.928 62.6998 236.208 62.9698 235.548 63.2098C235.008 63.1498 234.588 63.0598 234.288 62.9398C234.048 62.8198 233.838 62.6398 233.658 62.3998C233.478 62.1598 233.298 61.8298 233.118 61.4098C232.998 60.9898 232.758 60.4498 232.398 59.7898C231.798 59.5498 230.988 59.4898 229.968 59.6098C228.948 59.6698 228.108 59.9998 227.448 60.5998C227.208 61.2598 226.968 61.7098 226.728 61.9498C226.548 62.1898 226.338 62.3998 226.098 62.5798C225.918 62.6998 225.678 62.8198 225.378 62.9398C225.078 63.0598 224.718 63.2998 224.298 63.6598C222.738 63.7798 221.448 63.8398 220.428 63.8398C219.468 63.8398 218.598 63.7798 217.818 63.6598C217.098 63.4798 216.408 63.2698 215.748 63.0298C215.088 62.7298 214.338 62.3398 213.498 61.8598C212.238 61.6798 211.158 61.4098 210.258 61.0498C209.418 60.6898 208.698 60.2998 208.098 59.8798C207.558 59.3998 207.078 58.9198 206.658 58.4398C206.238 57.8998 205.848 57.4198 205.488 56.9998L201.618 48.3598L202.248 40.8898C202.728 40.5898 203.088 40.3798 203.328 40.2598C203.628 40.1398 203.868 40.0198 204.048 39.8998C204.228 39.7798 204.378 39.6298 204.498 39.4498C204.678 39.2098 204.888 38.8198 205.128 38.2798C205.308 38.2198 205.428 38.0398 205.488 37.7398C205.608 37.4398 205.638 37.1098 205.578 36.7498C205.578 36.3898 205.518 36.0298 205.398 35.6698C205.278 35.3098 205.098 35.0398 204.858 34.8598L207.918 30.1798C208.098 30.1798 208.428 30.0298 208.908 29.7298C209.388 29.3698 209.958 28.9798 210.618 28.5598C211.278 28.0798 211.998 27.6298 212.778 27.2098C213.618 26.7898 214.488 26.4898 215.388 26.3098C217.068 25.8298 218.358 25.5898 219.258 25.5898C220.158 25.5298 220.698 25.4698 220.878 25.4098C221.238 25.6498 221.658 25.8298 222.138 25.9498C222.618 26.0698 223.068 26.1898 223.488 26.3098C223.968 26.3698 224.358 26.4298 224.658 26.4898C225.018 26.4898 225.228 26.4898 225.288 26.4898C225.348 26.4898 225.438 26.6698 225.558 27.0298C225.678 27.3898 225.828 27.8398 226.008 28.3798C226.188 28.9198 226.428 29.4598 226.728 29.9998C227.028 30.5398 227.388 30.9898 227.808 31.3498L229.428 31.8898L230.868 31.3498L231.228 26.9398L230.778 23.3398C231.078 22.5598 231.258 21.8998 231.318 21.3598C231.438 20.7598 231.468 20.1598 231.408 19.5598C231.408 18.9598 231.378 18.3598 231.318 17.7598C231.258 17.0998 231.228 16.3498 231.228 15.5098C232.068 14.5498 232.548 13.6198 232.668 12.7198C232.848 11.8198 232.428 10.8898 231.408 9.92984L231.318 6.05985L233.748 1.91985L235.908 1.55985ZM226.638 57.5398L229.248 54.5698C229.068 54.3298 229.128 53.8798 229.428 53.2198C229.728 52.5598 229.818 51.8098 229.698 50.9698C229.638 50.5498 229.608 49.6198 229.608 48.1798C229.668 46.7398 229.728 45.2398 229.788 43.6798C229.848 42.1198 229.908 40.7398 229.968 39.5398C230.028 38.2798 229.458 37.0198 228.258 35.7598L222.678 33.4198L217.458 34.8598L215.028 37.5598C214.428 38.5198 213.948 39.3898 213.588 40.1698C213.288 40.9498 213.078 41.7598 212.958 42.5998C212.838 43.3798 212.808 44.1898 212.868 45.0298C212.928 45.8698 213.048 46.7998 213.228 47.8198C213.108 49.0198 213.288 49.9798 213.768 50.6998C214.248 51.4198 214.968 52.0198 215.928 52.4998L219.168 56.0098L221.868 57.2698C222.288 57.4498 222.618 57.6298 222.858 57.8098C223.158 57.9298 223.428 58.0198 223.668 58.0798C223.968 58.0798 224.328 58.0498 224.748 57.9898C225.228 57.9298 225.858 57.7798 226.638 57.5398Z" fill="#5AA200"/>
<path d="M259.979 7.85984C260.099 7.37984 260.159 6.92984 260.159 6.50985C260.219 6.02984 260.279 5.54984 260.339 5.06984C260.339 4.64984 260.339 4.28985 260.339 3.98985C260.399 3.68985 260.429 3.41985 260.429 3.17985L260.879 2.18984C261.059 2.12984 261.299 2.09984 261.599 2.09984C261.899 2.09984 262.259 2.06984 262.679 2.00984C263.939 1.94985 264.749 1.79985 265.109 1.55985C265.109 1.49985 265.259 1.37985 265.559 1.19984C265.739 1.01984 265.889 0.899843 266.009 0.839844C266.069 0.839844 266.279 0.869843 266.639 0.929843C266.999 0.989842 267.479 1.10984 268.079 1.28984C269.099 1.52984 269.819 1.64984 270.239 1.64984C270.779 1.64984 271.079 1.61984 271.139 1.55985C271.199 1.49985 271.379 1.49985 271.679 1.55985L272.489 3.08984L273.299 7.67985L271.409 10.8298C271.349 10.8898 271.289 10.9498 271.229 11.0098C271.229 11.0698 271.169 11.1298 271.049 11.1898C270.749 11.3698 270.389 11.6398 269.969 11.9998L269.699 12.2698L266.999 12.5398C266.639 12.4198 266.219 12.2998 265.739 12.1798C265.259 11.9998 264.689 11.7898 264.029 11.5498C263.369 11.3098 262.799 11.0998 262.319 10.9198C261.839 10.6798 261.419 10.4998 261.059 10.3798L260.609 9.92984L259.979 7.85984ZM271.139 23.3398L270.779 26.5798L271.139 27.9298L270.599 29.3698L270.869 31.4398L270.419 33.1498L270.689 33.6898L270.329 37.7398L269.969 46.2898C269.969 46.7098 269.909 47.2498 269.789 47.9098C269.669 48.5098 269.579 49.1698 269.519 49.8898C269.459 50.5498 269.459 51.2398 269.519 51.9598C269.579 52.6198 269.759 53.1898 270.059 53.6698C269.999 54.5698 269.909 55.6198 269.789 56.8198C269.669 58.0198 269.459 59.3998 269.159 60.9598C268.679 61.6198 268.169 62.2198 267.629 62.7598C267.149 63.2398 266.219 63.5098 264.839 63.5698C264.059 63.6298 263.279 63.6898 262.499 63.7498C261.779 63.8098 261.089 63.8998 260.429 64.0198C260.069 64.0798 259.709 64.1398 259.349 64.1998C258.989 64.2598 258.599 64.3498 258.179 64.4698L255.929 61.5898C255.989 61.2898 256.079 60.4798 256.199 59.1598C256.379 57.7798 256.529 56.1598 256.649 54.2998C256.769 52.4398 256.829 50.4598 256.829 48.3598C256.889 46.2598 256.829 44.3098 256.649 42.5098L257.189 40.7998L257.999 36.8398L258.269 33.6898L258.809 32.6098L258.899 31.7998L259.439 29.3698L259.889 24.4198L267.989 21.2698L271.139 23.3398Z" fill="#5AA200"/>
<path d="M328.34 59.0698L315.74 60.5998L313.13 56.3698C313.13 55.5898 312.53 55.6198 311.33 56.4598C311.03 56.6398 310.73 56.9398 310.43 57.3598C310.13 57.7798 309.83 58.1998 309.53 58.6198C309.35 58.8598 309.17 59.0998 308.99 59.3398C308.81 59.5798 308.63 59.8498 308.45 60.1498C306.59 61.5298 304.67 62.4298 302.69 62.8498C300.77 63.2698 299.12 62.9998 297.74 62.0398C296.72 61.9198 296.03 61.6798 295.67 61.3198C295.49 61.1998 295.25 60.9898 294.95 60.6898L289.19 60.3298L286.76 59.1598L284.51 53.4898L284.96 51.5998L282.98 43.6798L286.76 37.3798L289.82 34.5898C290.96 33.9898 292.28 33.5098 293.78 33.1498C295.28 32.7898 296.78 32.5498 298.28 32.4298C299.78 32.2498 301.22 32.2198 302.6 32.3398C303.98 32.3998 305.12 32.5798 306.02 32.8798C306.02 33.8398 306.32 34.4698 306.92 34.7698C307.52 35.0698 308.69 35.3998 310.43 35.7598C311.03 34.7398 311.33 33.5098 311.33 32.0698C311.33 30.5698 311.06 29.0098 310.52 27.3898L309.08 22.7998C308.6 22.6198 307.85 22.3198 306.83 21.8998C305.87 21.4198 305.06 21.0298 304.4 20.7298L300.53 21.3598L296.57 22.1698L295.67 20.7298L296.66 18.3898L297.29 16.9498L298.55 16.6798L302.69 15.9598L306.38 17.2198L310.43 16.5898L318.26 18.9298L321.59 23.9698L322.76 38.2798L322.49 42.7798L324.47 53.3098L325.64 53.8498H328.43L329.6 56.9998L328.34 59.0698ZM295.31 44.3998C295.01 45.9598 295.01 47.2798 295.31 48.3598C295.67 49.4398 296.24 50.3398 297.02 51.0598L298.37 53.8498C299.45 54.2098 300.47 54.4798 301.43 54.6598C302.39 54.8398 303.38 54.8698 304.4 54.7498C305.48 54.5698 306.59 54.2398 307.73 53.7598C308.93 53.2198 310.31 52.4398 311.87 51.4198L312.05 46.8298L310.43 38.8198C309.59 38.5198 308.84 38.3698 308.18 38.3698C307.58 38.3698 306.98 38.4298 306.38 38.5498C305.66 38.7298 304.82 38.8798 303.86 38.9998C302.9 39.1198 301.91 39.2698 300.89 39.4498C299.93 39.5698 299.03 39.7498 298.19 39.9898C297.41 40.1698 296.84 40.4398 296.48 40.7998L295.31 44.3998Z" fill="#5AA200"/>
</svg>
